<?xml version="1.0" standalone="no"?>
<!DOCTYPE svg PUBLIC "-//W3C//DTD SVG 20010904//EN"
 "http://www.w3.org/TR/2001/REC-SVG-20010904/DTD/svg10.dtd">
<svg version="1.0" xmlns="http://www.w3.org/2000/svg"
 width="700.000000pt" height="700.000000pt" viewBox="0 0 700.000000 700.000000"
 preserveAspectRatio="xMidYMid meet">
<metadata>
Created by potrace 1.14, written by Peter Selinger 2001-2017
</metadata>
<g transform="translate(0.000000,700.000000) scale(0.100000,-0.100000)"
fill="#000000" stroke="none">
<path d="M3215 6990 c-848 -76 -1598 -424 -2190 -1015 -538 -537 -880 -1219
-989 -1975 -215 -1488 543 -2947 1883 -3624 698 -353 1507 -461 2282 -305 720
145 1389 522 1881 1063 896 984 1159 2373 686 3624 -61 161 -206 454 -298 600
-152 243 -395 535 -597 718 -546 497 -1191 797 -1923 895 -167 23 -575 33
-735 19z m-127 -981 c69 -34 85 -79 90 -256 2 -79 7 -143 11 -142 3 0 36 36
73 79 122 142 279 249 433 296 86 27 307 27 385 0 125 -43 212 -103 295 -203
149 -181 214 -412 202 -726 -11 -319 -103 -613 -277 -890 -34 -54 -60 -101
-57 -103 3 -3 42 -13 87 -21 145 -29 278 4 416 102 77 55 222 198 365 360 58
66 120 130 139 143 44 29 126 31 163 2 83 -65 100 -275 36 -445 -26 -71 -112
-179 -259 -325 -149 -149 -305 -267 -445 -335 -130 -64 -231 -92 -378 -105
-223 -19 -383 28 -523 153 l-50 45 -74 -42 c-152 -86 -319 -141 -460 -153
-121 -10 -116 -4 -124 -130 -16 -251 -67 -644 -117 -903 -168 -860 -394 -1293
-737 -1412 -88 -30 -294 -33 -384 -5 -185 57 -315 238 -365 511 -32 170 -22
471 23 746 104 628 433 1442 901 2233 l64 107 -7 579 c-8 659 -10 641 67 725
83 91 199 134 363 135 82 1 107 -3 144 -20z"/>
<path d="M3549 5433 c-67 -33 -231 -195 -311 -308 l-57 -81 -3 -542 c-3 -624
-16 -564 104 -513 278 119 516 463 595 860 12 60 17 136 18 251 0 153 -2 169
-24 217 -24 55 -84 117 -127 133 -50 19 -137 12 -195 -17z"/>
<path d="M2479 3683 c-163 -373 -340 -911 -414 -1255 -96 -449 -92 -792 12
-900 59 -61 136 -13 187 118 103 266 191 934 226 1704 13 294 16 380 12 380
-1 0 -12 -21 -23 -47z"/>
</g>
</svg>
