<?xml version="1.0" encoding="UTF-8" standalone="no"?>
<!-- Created with Inkscape (http://www.inkscape.org/) -->

<svg
   width="210mm"
   height="297mm"
   viewBox="0 0 210 297"
   version="1.1"
   id="svg5"
   inkscape:export-filename="/home/marco/ownCloud/neherlab/code/pangraph/docs/src/assets/pangraph_inversion.png"
   inkscape:export-xdpi="100"
   inkscape:export-ydpi="100"
   inkscape:version="1.1.2 (b8e25be833, 2022-02-05)"
   sodipodi:docname="inversion.svg"
   xmlns:inkscape="http://www.inkscape.org/namespaces/inkscape"
   xmlns:sodipodi="http://sodipodi.sourceforge.net/DTD/sodipodi-0.dtd"
   xmlns="http://www.w3.org/2000/svg"
   xmlns:svg="http://www.w3.org/2000/svg">
  <sodipodi:namedview
     id="namedview7"
     pagecolor="#ffffff"
     bordercolor="#999999"
     borderopacity="1"
     inkscape:pageshadow="0"
     inkscape:pageopacity="0"
     inkscape:pagecheckerboard="0"
     inkscape:document-units="mm"
     showgrid="false"
     inkscape:zoom="1.5554293"
     inkscape:cx="290.91647"
     inkscape:cy="132.76078"
     inkscape:window-width="2488"
     inkscape:window-height="1376"
     inkscape:window-x="2632"
     inkscape:window-y="27"
     inkscape:window-maximized="1"
     inkscape:current-layer="layer2" />
  <defs
     id="defs2">
    <marker
       style="overflow:visible"
       id="marker12228"
       refX="0.0"
       refY="0.0"
       orient="auto"
       inkscape:stockid="Arrow1Sstart"
       inkscape:isstock="true">
      <path
         transform="scale(0.2) translate(6,0)"
         style="fill-rule:evenodd;fill:context-stroke;stroke:context-stroke;stroke-width:1.0pt"
         d="M 0.0,0.0 L 5.0,-5.0 L -12.5,0.0 L 5.0,5.0 L 0.0,0.0 z "
         id="path12226" />
    </marker>
    <marker
       style="overflow:visible"
       id="Arrow2Sstart"
       refX="0.0"
       refY="0.0"
       orient="auto"
       inkscape:stockid="Arrow2Sstart"
       inkscape:isstock="true">
      <path
         transform="scale(0.3) translate(-2.3,0)"
         d="M 8.7185878,4.0337352 L -2.2072895,0.016013256 L 8.7185884,-4.0017078 C 6.9730900,-1.6296469 6.9831476,1.6157441 8.7185878,4.0337352 z "
         style="stroke:context-stroke;fill-rule:evenodd;fill:context-stroke;stroke-width:0.62500000;stroke-linejoin:round"
         id="path8955" />
    </marker>
    <marker
       style="overflow:visible"
       id="Arrow2Lstart"
       refX="0.0"
       refY="0.0"
       orient="auto"
       inkscape:stockid="Arrow2Lstart"
       inkscape:isstock="true">
      <path
         transform="scale(1.1) translate(1,0)"
         d="M 8.7185878,4.0337352 L -2.2072895,0.016013256 L 8.7185884,-4.0017078 C 6.9730900,-1.6296469 6.9831476,1.6157441 8.7185878,4.0337352 z "
         style="stroke:context-stroke;fill-rule:evenodd;fill:context-stroke;stroke-width:0.62500000;stroke-linejoin:round"
         id="path8943" />
    </marker>
    <marker
       style="overflow:visible"
       id="Tail"
       refX="0.0"
       refY="0.0"
       orient="auto"
       inkscape:stockid="Tail"
       inkscape:isstock="true">
      <g
         transform="scale(-1.2)"
         id="g8973">
        <path
           style="fill:none;fill-rule:evenodd;stroke:context-stroke;stroke-width:0.8;stroke-linecap:round"
           d="M -3.8048674,-3.9585227 L 0.54352094,0"
           id="path8961" />
        <path
           style="fill:none;fill-rule:evenodd;stroke:context-stroke;stroke-width:0.8;stroke-linecap:round"
           d="M -1.2866832,-3.9585227 L 3.0617053,0"
           id="path8963" />
        <path
           style="fill:none;fill-rule:evenodd;stroke:context-stroke;stroke-width:0.8;stroke-linecap:round"
           d="M 1.3053582,-3.9585227 L 5.6537466,0"
           id="path8965" />
        <path
           style="fill:none;fill-rule:evenodd;stroke:context-stroke;stroke-width:0.8;stroke-linecap:round"
           d="M -3.8048674,4.1775838 L 0.54352094,0.21974226"
           id="path8967" />
        <path
           style="fill:none;fill-rule:evenodd;stroke:context-stroke;stroke-width:0.8;stroke-linecap:round"
           d="M -1.2866832,4.1775838 L 3.0617053,0.21974226"
           id="path8969" />
        <path
           style="fill:none;fill-rule:evenodd;stroke:context-stroke;stroke-width:0.8;stroke-linecap:round"
           d="M 1.3053582,4.1775838 L 5.6537466,0.21974226"
           id="path8971" />
      </g>
    </marker>
    <marker
       style="overflow:visible"
       id="marker9195"
       refX="0.0"
       refY="0.0"
       orient="auto"
       inkscape:stockid="Arrow1Sstart"
       inkscape:isstock="true">
      <path
         transform="scale(0.2) translate(6,0)"
         style="fill-rule:evenodd;fill:context-stroke;stroke:context-stroke;stroke-width:1.0pt"
         d="M 0.0,0.0 L 5.0,-5.0 L -12.5,0.0 L 5.0,5.0 L 0.0,0.0 z "
         id="path9193" />
    </marker>
    <marker
       style="overflow:visible"
       id="Arrow1Sstart"
       refX="0.0"
       refY="0.0"
       orient="auto"
       inkscape:stockid="Arrow1Sstart"
       inkscape:isstock="true">
      <path
         transform="scale(0.2) translate(6,0)"
         style="fill-rule:evenodd;fill:context-stroke;stroke:context-stroke;stroke-width:1.0pt"
         d="M 0.0,0.0 L 5.0,-5.0 L -12.5,0.0 L 5.0,5.0 L 0.0,0.0 z "
         id="path8937" />
    </marker>
  </defs>
  <g
     inkscape:label="Layer 1"
     inkscape:groupmode="layer"
     id="layer1">
    <path
       id="rect1763-6"
       style="fill:none;stroke:#005baa;stroke-width:1.056;stroke-linecap:round;stroke-linejoin:round;stroke-miterlimit:4;stroke-dasharray:none;stroke-dashoffset:4.49764;stroke-opacity:1;marker-mid:url(#Arrow2Sstart)"
       d="m 74.85071,93.399478 c -0.09241,0 -0.184874,-6.04e-4 -0.277401,-0.0018 C 57.981125,93.181691 39.503307,73.660441 39.503307,56.240825 c 0,-17.516756 18.303321,-37.151935 34.96625,-37.151938 12.776529,-2e-6 26.853623,19.414525 32.725163,28.470866 3.08734,5.600773 2.93146,4.183053 5.48066,0.223166 5.78199,-8.95756 19.98722,-28.70075 32.87013,-28.700748 16.66293,3e-6 35.3474,19.641898 35.3474,37.158654 0,17.516757 -18.68448,37.158653 -35.3474,37.158653 -12.60727,0 -26.37178,-19.115535 -32.32532,-28.420746 -3.44155,-6.573363 -3.43686,-4.064444 -6.24641,0.315187 -6.05839,9.414333 -19.656508,28.105559 -32.12307,28.105559 z"
       sodipodi:nodetypes="csssccszcccc" />
  </g>
  <g
     inkscape:groupmode="layer"
     id="layer2"
     inkscape:label="Layer 2">
    <path
       id="rect1763"
       style="fill:none;stroke:#aa0000;stroke-linecap:round;stroke-linejoin:round;stroke-dashoffset:4.49764;marker-mid:url(#Arrow2Sstart)"
       transform="rotate(45)"
       d="m 116.26203,11.374631 c -12.2706,9.711529 -36.57228,9.557184 -47.39855,-1.269086 -11.439316,-11.4393162 -11.439316,-37.093593 0,-48.532909 8.886778,-8.886778 33.37601,-3.946933 43.86246,-1.29993 3.93541,1.022895 8.1756,2.292916 11.1974,3.028882 11.05791,2.675997 33.5261,6.750905 42.00596,-1.728962 11.43931,-11.439317 11.43931,-37.093588 0,-48.532904 -11.43932,-11.439316 -37.09359,-11.439315 -48.5329,-6e-6 -8.6983,8.698292 -4.05381,32.247718 -1.32862,43.033893 0.96406,3.916529 2.37996,8.224506 3.18418,11.236788 2.61162,9.836108 6.81123,29.8831125 0.89189,39.8290062 -1.31932,1.8340828 -2.1223,2.8778528 -3.88182,4.2352278 z"
       sodipodi:nodetypes="cssccszscccc" />
  </g>
</svg>
