<svg xmlns="http://www.w3.org/2000/svg" preserveAspectRatio="xMidYMid" viewBox="211.2 14 77.6 122"><defs><linearGradient id="b" x1=".8147" x2=".1853" y1=".8886" y2=".1114"><stop offset="0" stop-color="#67ff43"/><stop offset="1" stop-color="#90ffff"/></linearGradient><filter id="a" width="300%" height="300%" x="-100%" y="-100%"><feGaussianBlur in="SourceGraphic" result="blur" stdDeviation="10"/><feMerge><feMergeNode in="blur"/><feMergeNode in="SourceGraphic"/></feMerge></filter></defs><g filter="url(#a)"><path fill="url(#b)" d="M26.11-42.69q15.68 0 15.68 11.07 0 6.08-3.9 9.73-3.84 3.65-10.56 3.65-3.14 0-5.57-1.79-1.15-.77-1.92-1.79 4.67 0 7.14-2.85 2.46-2.85 2.46-8.42t-5.5-5.57H22.4q-.38 0-.7.07L14.34 0H.45l7.87-41.92q6.85-.64 10.82-.7 3.96-.07 6.97-.07Z" transform="translate(229.5487 96.345)"/></g></svg>