<svg xmlns="http://www.w3.org/2000/svg" viewBox="0 0 100 100"><rect width="100" height="100" fill="#492c7c" rx="50"/><path fill="#e5c3c0" d="M76.25 33.19q1.01 0 1.6.94.58.93.58 2.57 0 3.12-1.48 4.84-3.36 4.13-7.22 6.78-3.86 2.65-8.77 2.65-4.13 0-6.71-2.96-4.44 2.89-9.28 2.96-1.02 15.06-4.6 25.16-3.59 10.1-10.53 10.1-4.21 0-6.24-3.04-2.03-3.04-2.03-8.43 0-7.64 3.51-17.82t10.84-22.42q0-11.39-.15-15.84-.08-2.26 1.79-3.59 1.87-1.32 4.68-1.32 1.64 0 2.38.66t.82 2.61q0 1.95.08 2.89 2.49-3.12 4.91-4.48 2.42-1.37 5.15-1.37 4.37 0 7.13 3.51 2.77 3.51 2.77 9.2 0 4.14-1.32 8.04-1.33 3.9-3.67 7.1 1.64.46 2.73.46 2.58 0 4.92-1.87t6-6.24q.94-1.09 2.11-1.09Zm-30.89 10.3q2.81-.63 5.19-3.08 2.38-2.46 3.78-6.09t1.4-7.6q0-2.34-.93-3.55-.94-1.21-2.5-1.21-2.81 0-6.78 5.93-.08 3.43-.08 10.06 0 3.59-.08 5.54Zm-14.9 35.1q2.11 0 3.51-9.17 1.41-9.16 1.8-22.81-3.36 7.8-5.31 14.89-1.95 7.1-1.95 11.94 0 2.5.59 3.82.58 1.33 1.36 1.33Z" style="--darkreader-inline-fill:#181a1b"/></svg>
